<?xml version="1.0" encoding="utf-8"?>
<!-- Generator: Adobe Illustrator 16.0.0, SVG Export Plug-In . SVG Version: 6.00 Build 0)  -->
<!DOCTYPE svg PUBLIC "-//W3C//DTD SVG 1.1//EN" "http://www.w3.org/Graphics/SVG/1.1/DTD/svg11.dtd">
<svg version="1.1" xmlns="http://www.w3.org/2000/svg" xmlns:xlink="http://www.w3.org/1999/xlink" x="0px" y="0px" width="634px"
	 height="634px" viewBox="0 0 634 634" enable-background="new 0 0 634 634" xml:space="preserve">
<g id="Layer_1">
</g>
<g id="Layer_2">
</g>
<g id="Layer_3">
	<path fill="#464646" d="M218.525,450.35c20.871-11.893,42.146-25.389,53.209-36.451c15.446-15.445,49.375-49.375,74.582-74.582
		c3.085-2.695,5.801-5.188,8.029-7.416l145.799,198.738c17.65-17.646,20.845-34.361,8.825-70.578l-81.892-201.506
		c35.736-35.736,80.016-80.016,94.795-94.795c17.854-17.854,28.573-41.176,29.41-56.586c0.637-11.752-7.312-17.838-7.312-17.838
		s-6.086-7.949-17.837-7.312c-15.411,0.838-38.732,11.557-56.587,29.41c-14.778,14.779-59.059,59.059-94.795,94.795l-201.491-81.877
		c-36.216-12.018-52.915-8.809-70.562,8.842l198.728,145.789c-2.228,2.229-4.546,5.117-7.437,8.008
		c-25.206,25.207-59.136,59.137-74.582,74.582c-11.062,11.064-24.538,32.359-36.431,53.23
		c-91.54-22.867-91.891-22.502-100.297-14.098l78.519,54.83c-4.766,9.41-7.68,15.512-7.68,15.512l4.37,4.371l4.411,4.41
		c0,0,6.102-2.914,15.512-7.678l54.82,78.506C241.037,542.252,241.392,541.891,218.525,450.35z"/>
</g>
</svg>
