<?xml version="1.0" encoding="utf-8"?>
<!-- Generator: Adobe Illustrator 16.0.0, SVG Export Plug-In . SVG Version: 6.00 Build 0)  -->
<!DOCTYPE svg PUBLIC "-//W3C//DTD SVG 1.1//EN" "http://www.w3.org/Graphics/SVG/1.1/DTD/svg11.dtd">
<svg version="1.1" xmlns="http://www.w3.org/2000/svg" xmlns:xlink="http://www.w3.org/1999/xlink" x="0px" y="0px" width="634px"
	 height="634px" viewBox="0 0 634 634" enable-background="new 0 0 634 634" xml:space="preserve">
<g id="Layer_1">
	<rect x="-1" y="1" width="634" height="634"/>
</g>
<g id="Layer_2">
</g>
<g id="Layer_3">
	<g>
		<path fill="#A3E4FF" d="M103,431v7.638c0,7.859,4.874,18.283,11.031,23.167l48.009,38.724c6.158,4.883,17.543,9.472,25.402,9.472
			h259.223c7.859,0,19.359-4.548,25.556-9.38l47.676-37.603c6.197-4.834,11.103-15.515,11.103-23.373V431H103z"/>
		<path fill="#A3E4FF" d="M388.677,282.413c-1.854-2.136-5.687-3.413-8.516-3.413h-27.008c-2.829,0-5.598,1.798-6.154,4.571
			l-4.562,23.083c-0.556,2.773,1.305,5.346,4.134,5.346h62.111c2.829,0,3.627-2.053,1.772-4.188L388.677,282.413z"/>
		<path fill="#A3E4FF" d="M244.809,282.413c1.854-2.136,5.687-3.413,8.516-3.413h27.008c2.829,0,5.599,1.798,6.154,4.571
			l4.562,23.083c0.556,2.773-1.305,5.346-4.134,5.346h-62.111c-2.83,0-3.627-2.053-1.772-4.188L244.809,282.413z"/>
		<g>
			<path fill="#A3E4FF" d="M404,185.005v-22.631C403,141.703,385.49,126,365.432,125H317h-48.432
				C248.51,126,231,141.703,230,162.374v22.631L102.67,423H317h214.33L404,185.005z M293.82,317h-75.888
				c-3.144,0-4.729-2.917-3.523-5.821l41.127-98.446c1.206-2.902,4.765-4.732,7.908-4.732h21.379c3.144,0,5.926,1.747,6.184,4.88
				l8.061,98.29C299.326,314.303,296.964,317,293.82,317z M416.068,317H340.18c-3.144,0-5.505-3.106-5.248-6.239l8.061-97.608
				c0.257-3.135,3.04-5.152,6.184-5.152h21.379c3.144,0,6.703,1.56,7.908,4.462l41.127,99.126
				C420.797,314.49,419.211,317,416.068,317z"/>
		</g>
	</g>
</g>
</svg>
