<?xml version="1.0" encoding="utf-8"?>
<!-- Generator: Adobe Illustrator 16.0.0, SVG Export Plug-In . SVG Version: 6.00 Build 0)  -->
<!DOCTYPE svg PUBLIC "-//W3C//DTD SVG 1.1//EN" "http://www.w3.org/Graphics/SVG/1.1/DTD/svg11.dtd">
<svg version="1.1" xmlns="http://www.w3.org/2000/svg" xmlns:xlink="http://www.w3.org/1999/xlink" x="0px" y="0px" width="634px"
	 height="634px" viewBox="0 0 634 634" enable-background="new 0 0 634 634" xml:space="preserve">
<g id="Layer_1">
	<rect y="1" width="634" height="634"/>
</g>
<g id="Layer_2">
</g>
<g id="Layer_3">
	<g>
		<g>
			<polygon fill="#A3E4FF" points="342,292 469.36,292 504.161,257.031 377.057,130.1 342,164.817 			"/>
			<polygon fill="#A3E4FF" points="419.36,342 342,342 342,418.515 			"/>
			<polygon fill="#A3E4FF" points="292,342 165.663,342 130.862,376.633 257.455,503.398 292,468.515 			"/>
			<polygon fill="#A3E4FF" points="292,292 292,214.817 215.663,292 			"/>
		</g>
		<path fill="#A3E4FF" d="M568.04,173.96L460.218,66.138c-5.254-5.254-13.773-5.254-19.027,0l-50.287,50.287l126.85,126.85
			l50.287-50.287C573.294,187.732,573.294,179.214,568.04,173.96z"/>
		<path fill="#A3E4FF" d="M66.985,459.37l107.822,107.822c5.254,5.254,13.771,5.254,19.027,0l50.287-50.287l-126.85-126.849
			l-50.287,50.286C61.731,445.597,61.731,454.116,66.985,459.37z"/>
	</g>
</g>
</svg>
