<?xml version="1.0" encoding="utf-8"?>
<!-- Generator: Adobe Illustrator 16.0.0, SVG Export Plug-In . SVG Version: 6.00 Build 0)  -->
<!DOCTYPE svg PUBLIC "-//W3C//DTD SVG 1.1//EN" "http://www.w3.org/Graphics/SVG/1.1/DTD/svg11.dtd">
<svg version="1.1" xmlns="http://www.w3.org/2000/svg" xmlns:xlink="http://www.w3.org/1999/xlink" x="0px" y="0px" width="634px"
	 height="634px" viewBox="0 0 634 634" enable-background="new 0 0 634 634" xml:space="preserve">
<g id="Layer_1">
</g>
<g id="Layer_2">
</g>
<g id="Layer_3">
	<g>
		<path fill="#464646" d="M469,362.761l57.139,32.979l71.184-41.095l-0.023-82.196l-71.209-41.1L469,264.31V259H70v124h15.576
			l-22.738,43.336c-0.771,1.467-1.027,3.094-0.844,4.664h-7.965l-17.352,17h66.926l-17.352-17h-1.767l73.05-41.795
			c2.279-1.305,3.711-3.669,3.977-6.205h26.598c0.062,0.629,0.199,1.252,0.411,1.855L204.759,431h-7.729l-17.352,17h66.926
			l-17.352-17h-6.493l37.839-43.486c1.107-1.271,1.742-2.868,1.907-4.514h114.467c0.269,2.514,1.699,4.84,3.976,6.143L454.05,431
			h-2.021l-17.352,17h66.926l-17.352-17h-7.76c0.173-1.549-0.084-3.149-0.848-4.602L452.904,383H469V362.761z M156,284h48v23h-48
			V284z M69.92,429.859L94.541,383h57.273L69.92,429.859z M212.92,429.859L196.418,383h57.274L212.92,429.859z M295,307h-48v-23h48
			V307z M335,284h48v23h-48V284z M468.562,429.859L386.668,383h57.273L468.562,429.859z"/>
		<polygon fill="#464646" points="469,202.265 360.668,187 339,187 339,247 469,247 		"/>
		<rect x="208" y="187" fill="#464646" width="119" height="60"/>
		<polygon fill="#464646" points="196,187 177.449,187 70,202.265 70,247 196,247 		"/>
	</g>
</g>
</svg>
