<?xml version="1.0" encoding="utf-8"?>
<!-- Generator: Adobe Illustrator 16.0.0, SVG Export Plug-In . SVG Version: 6.00 Build 0)  -->
<!DOCTYPE svg PUBLIC "-//W3C//DTD SVG 1.1//EN" "http://www.w3.org/Graphics/SVG/1.1/DTD/svg11.dtd">
<svg version="1.1" xmlns="http://www.w3.org/2000/svg" xmlns:xlink="http://www.w3.org/1999/xlink" x="0px" y="0px" width="634px"
	 height="634px" viewBox="0 0 634 634" enable-background="new 0 0 634 634" xml:space="preserve">
<g id="Layer_1">
</g>
<g id="Layer_2">
</g>
<g id="Layer_3">
	<g>
		<path fill="#464646" d="M103,431v8.138c0,7.859,4.874,18.283,11.031,23.167l48.009,38.474c6.158,4.883,17.543,9.222,25.402,9.222
			h259.223c7.859,0,19.359-4.298,25.556-9.13l47.676-37.478c6.197-4.834,11.103-15.39,11.103-23.248V431H103z"/>
		<path fill="#464646" d="M388.677,282.663c-1.854-2.136-5.687-3.663-8.516-3.663h-27.008c-2.829,0-5.598,2.048-6.154,4.821
			l-4.562,22.958c-0.556,2.773,1.305,5.221,4.134,5.221h62.111c2.829,0,3.627-1.928,1.772-4.062L388.677,282.663z"/>
		<path fill="#464646" d="M244.809,282.663c1.854-2.136,5.687-3.663,8.516-3.663h27.008c2.829,0,5.599,2.048,6.154,4.821
			l4.562,22.958c0.556,2.773-1.305,5.221-4.134,5.221h-62.111c-2.83,0-3.627-1.928-1.772-4.062L244.809,282.663z"/>
		<g>
			<path fill="#464646" d="M404,185.505v-22.631C403,142.203,385.49,126,365.432,125H317h-48.432
				C248.51,126,231,142.203,230,162.874v22.631L102.67,423H317h214.33L404,185.505z M293.82,317h-75.888
				c-3.144,0-4.729-2.667-3.523-5.571l41.127-98.571c1.206-2.902,4.765-4.857,7.908-4.857h21.379c3.144,0,5.926,1.997,6.184,5.13
				l8.061,98.165C299.326,314.428,296.964,317,293.82,317z M416.068,317H340.18c-3.144,0-5.505-2.856-5.248-5.989l8.061-97.733
				c0.257-3.135,3.04-5.277,6.184-5.277h21.379c3.144,0,6.703,1.81,7.908,4.712l41.127,99.001
				C420.797,314.615,419.211,317,416.068,317z"/>
		</g>
	</g>
</g>
</svg>
