<?xml version="1.0" encoding="utf-8"?>
<!-- Generator: Adobe Illustrator 16.0.0, SVG Export Plug-In . SVG Version: 6.00 Build 0)  -->
<!DOCTYPE svg PUBLIC "-//W3C//DTD SVG 1.1//EN" "http://www.w3.org/Graphics/SVG/1.1/DTD/svg11.dtd">
<svg version="1.1" xmlns="http://www.w3.org/2000/svg" xmlns:xlink="http://www.w3.org/1999/xlink" x="0px" y="0px" width="634px"
	 height="634px" viewBox="0 0 634 634" enable-background="new 0 0 634 634" xml:space="preserve">
<g id="Layer_1">
	<rect y="1" width="634" height="634"/>
</g>
<g id="Layer_2">
</g>
<g id="Layer_3">
	<g>
		<path fill="#A3E4FF" d="M306.258,440.13c-2.023-6.205-2.023-6.205-20.252-62.076l-17.998-22.094l-18.211-22.359
			c-51.029-29.154-51.029-29.154-56.695-32.391c-5.168-2.953-9.215-3.254-4.809,4.164c3.275,5.514,25.367,42.402,25.367,42.402
			l25.684,31.531l25.467,31.268c0,0,31.658,29.096,36.396,33.42C307.578,449.81,308.104,445.788,306.258,440.13z"/>
		<path fill="#A3E4FF" d="M421.375,376.044l-77.87-29.128l68.29-55.624l-6.07-7.453c13.299-10.832,15.297-30.395,4.465-43.693
			s-30.392-15.297-43.692-4.465l-6.071-7.453l-68.817,56.055l-12.766-82.11l0.278-0.136L279,201.751V201h-0.035L146.479,38.842
			l-67.123,54.63L211.723,256h-0.011l0.228,0.48l0.162-0.032l77.829,29.156l-38.433,31.327l25.684,31.545l25.684,31.536
			l38.66-31.487l12.771,82.154L486.922,593.5L554,538.861L421.375,376.044z M221.616,254.759l53.56-43.627l10.508,67.59
			L221.616,254.759z M347.391,353.708l64.067,23.965l-53.56,43.625L347.391,353.708z"/>
	</g>
</g>
</svg>
