<?xml version="1.0" encoding="utf-8"?>
<!-- Generator: Adobe Illustrator 16.0.0, SVG Export Plug-In . SVG Version: 6.00 Build 0)  -->
<!DOCTYPE svg PUBLIC "-//W3C//DTD SVG 1.1//EN" "http://www.w3.org/Graphics/SVG/1.1/DTD/svg11.dtd">
<svg version="1.1" xmlns="http://www.w3.org/2000/svg" xmlns:xlink="http://www.w3.org/1999/xlink" x="0px" y="0px" width="634px"
	 height="634px" viewBox="0 0 634 634" enable-background="new 0 0 634 634" xml:space="preserve">
<g id="Layer_1">
</g>
<g id="Layer_2">
</g>
<g id="Layer_3">
	<g>
		<path fill="#464646" d="M47,280v1.901c0,2.56,2.223,5.951,5.491,7.54l25.292,12.54c3.268,1.588,9.128,3.019,13.298,3.019h452.544
			c4.17,0,10.272-1.416,13.561-2.99l25.109-12.205c3.289-1.573,5.705-5.018,5.705-7.575V280H47z"/>
		<polygon fill="#464646" points="494,362 456,379 456,312 494,312 		"/>
		<polygon fill="#464646" points="493.75,273 455.75,273 462,241.997 462,104 487,104 487,241.997 		"/>
		<path fill="#464646" d="M534.25,413.5c-11.842,0-22.688,4.249-31.108,11.299L448,389.847V312H183v81h31.525l-49.599,31.438
			c-8.358-6.834-19.037-10.938-30.677-10.938c-26.785,0-48.5,21.713-48.5,48.5c0,26.786,21.715,48.5,48.5,48.5
			c26.786,0,48.5-21.714,48.5-48.5c0-10.379-3.271-19.988-8.822-27.875l61.822-39.188l50.8,32.201
			c-9.12,8.817-14.8,21.172-14.8,34.861c0,26.786,21.715,48.5,48.5,48.5c26.786,0,48.5-21.714,48.5-48.5
			c0-26.787-21.714-48.5-48.5-48.5c-8.057,0-15.646,1.976-22.333,5.451L256.975,393h171.719l65.568,41.562
			c-5.365,7.804-8.512,17.252-8.512,27.438c0,26.786,21.715,48.5,48.5,48.5c26.786,0,48.5-21.714,48.5-48.5
			C582.75,435.213,561.036,413.5,534.25,413.5z"/>
		<path fill="#464646" d="M495,73h-87v24h3.525c0.268-9.432,7.979-17,17.475-17s17.207,7.568,17.475,17H495h40V73H495z"/>
		<circle fill="#464646" cx="429" cy="97.5" r="12.75"/>
	</g>
</g>
</svg>
