<?xml version="1.0" encoding="utf-8"?>
<!-- Generator: Adobe Illustrator 16.0.0, SVG Export Plug-In . SVG Version: 6.00 Build 0)  -->
<!DOCTYPE svg PUBLIC "-//W3C//DTD SVG 1.1//EN" "http://www.w3.org/Graphics/SVG/1.1/DTD/svg11.dtd">
<svg version="1.1" xmlns="http://www.w3.org/2000/svg" xmlns:xlink="http://www.w3.org/1999/xlink" x="0px" y="0px" width="634px"
	 height="634px" viewBox="0 0 634 634" enable-background="new 0 0 634 634" xml:space="preserve">
<g id="Layer_1">
</g>
<g id="Layer_2">
</g>
<g id="Layer_3">
	<g>
		<g>
			<polygon fill="#464646" points="348.132,407.304 276.99,380.903 288.485,455.829 406.419,600.436 466.066,551.91 			"/>
		</g>
		<g>
			<polygon fill="#464646" points="213.648,241.985 95.714,97.38 36.066,145.905 154,290.511 225.351,317.166 			"/>
		</g>
		<path fill="#464646" d="M431.063,391.471c-5.34-8.989-41.352-69.124-41.352-69.124l-41.869-51.401l-41.516-50.971
			c0,0-51.608-47.432-59.333-54.48c-10.386-9.479-11.242-2.923-8.231,6.301c3.297,10.115,3.299,10.115,33.012,101.195l29.34,36.018
			l29.688,36.449c83.185,47.525,83.187,47.525,92.423,52.803C431.65,403.073,438.245,403.562,431.063,391.471z"/>
		<path fill="#464646" d="M315.99,348.242l-25.684-31.533l-25.685-31.531l-80.93,66.728l6.07,7.452
			c-13.298,10.833-15.297,30.395-4.465,43.693s30.394,15.298,43.693,4.466l6.07,7.452L315.99,348.242z"/>
		<g>
			<path fill="#464646" d="M400.887,296.728c-0.922-17.951-7.473-34.796-18.943-48.714c-11.472-13.918-26.756-23.564-44.202-27.896
				l6.748-27.176c23.318,5.79,43.741,18.676,59.061,37.263c15.319,18.586,24.068,41.093,25.3,65.087L400.887,296.728z"/>
		</g>
		<g>
			<path fill="#464646" d="M479.642,292.469c-1.823-34.869-14.562-67.587-36.842-94.616s-51.962-45.781-85.84-54.229l6.773-27.168
				c39.739,9.908,74.552,31.896,100.673,63.588c26.121,31.69,41.059,70.062,43.196,110.964L479.642,292.469z"/>
		</g>
		<g>
			<path fill="#464646" d="M558.379,288.201c-2.725-51.777-21.651-100.362-54.735-140.501
				c-33.083-40.137-77.159-67.991-127.462-80.553l6.783-27.166c56.16,14.024,105.362,45.114,142.285,89.91
				c36.924,44.798,58.048,99.031,61.09,156.839L558.379,288.201z"/>
		</g>
	</g>
</g>
</svg>
