<?xml version="1.0" encoding="utf-8"?>
<!-- Generator: Adobe Illustrator 16.0.0, SVG Export Plug-In . SVG Version: 6.00 Build 0)  -->
<!DOCTYPE svg PUBLIC "-//W3C//DTD SVG 1.1//EN" "http://www.w3.org/Graphics/SVG/1.1/DTD/svg11.dtd">
<svg version="1.1" xmlns="http://www.w3.org/2000/svg" xmlns:xlink="http://www.w3.org/1999/xlink" x="0px" y="0px" width="634px"
	 height="634px" viewBox="0 0 634 634" enable-background="new 0 0 634 634" xml:space="preserve">
<g id="Layer_1">
</g>
<g id="Layer_2">
</g>
<g id="Layer_3">
	<g>
		<g>
			<polygon fill="#464646" points="342,292 469.023,292 503.824,256.983 376.889,130.027 342,164.721 			"/>
			<polygon fill="#464646" points="419.023,342 342,342 342,418.418 			"/>
			<polygon fill="#464646" points="292,342 165.326,342 130.525,376.585 257.287,503.326 292,468.418 			"/>
			<polygon fill="#464646" points="292,292 292,214.721 215.326,292 			"/>
		</g>
		<path fill="#464646" d="M567.703,173.863L459.881,66.041c-5.254-5.254-13.773-5.254-19.027,0l-50.287,50.287l126.85,126.85
			l50.287-50.287C572.957,187.636,572.957,179.117,567.703,173.863z"/>
		<path fill="#464646" d="M66.648,459.273l107.822,107.822c5.254,5.254,13.771,5.254,19.027,0l50.287-50.287L116.936,389.96
			l-50.287,50.286C61.395,445.5,61.395,454.02,66.648,459.273z"/>
	</g>
</g>
</svg>
