<?xml version="1.0" encoding="utf-8"?>
<!-- Generator: Adobe Illustrator 16.0.0, SVG Export Plug-In . SVG Version: 6.00 Build 0)  -->
<!DOCTYPE svg PUBLIC "-//W3C//DTD SVG 1.1//EN" "http://www.w3.org/Graphics/SVG/1.1/DTD/svg11.dtd">
<svg version="1.1" xmlns="http://www.w3.org/2000/svg" xmlns:xlink="http://www.w3.org/1999/xlink" x="0px" y="0px" width="634px"
	 height="634px" viewBox="0 0 634 634" enable-background="new 0 0 634 634" xml:space="preserve">
<g id="Layer_1">
</g>
<g id="Layer_2">
</g>
<g id="Layer_3">
	<g>
		
			<rect x="80.644" y="164.566" transform="matrix(0.7071 0.7071 -0.7071 0.7071 213.2418 6.6085)" fill="#A3E4FF" width="36" height="192.302"/>
		
			<rect x="113.171" y="197.093" transform="matrix(0.7071 0.7071 -0.7071 0.7071 245.7681 -6.8645)" fill="#A3E4FF" width="36" height="192.303"/>
		
			<rect x="323.181" y="407.104" transform="matrix(0.7071 0.7071 -0.7071 0.7071 455.8075 -93.8472)" fill="#A3E4FF" width="36" height="192.302"/>
		
			<rect x="355.708" y="439.63" transform="matrix(0.7071 0.7071 -0.7071 0.7071 488.2988 -107.327)" fill="#A3E4FF" width="36" height="192.302"/>
		
			<rect x="240.542" y="1.839" transform="matrix(0.7071 0.7071 -0.7071 0.7071 147.0095 -153.2853)" fill="#A3E4FF" width="36" height="197.96"/>
		
			<rect x="273.069" y="34.366" transform="matrix(0.7071 0.7071 -0.7071 0.7071 179.5358 -166.7582)" fill="#A3E4FF" width="36" height="197.959"/>
		
			<rect x="515.606" y="276.904" transform="matrix(0.7071 0.7071 -0.7071 0.7071 422.0797 -267.2229)" fill="#A3E4FF" width="36.002" height="197.96"/>
		<g>
			
				<rect x="402.1" y="325.358" transform="matrix(-0.7071 0.7071 -0.7071 -0.7071 1098.1855 231.8292)" fill="#A3E4FF" width="197.959" height="36"/>
			<path fill="#A3E4FF" d="M372.68,299.223l-6.699-6.699l7.505-7.504l6.698,6.699l42.5-42.5L384.5,211.035l-42.5,42.5l6.699,6.699
				l-7.504,7.504l-6.699-6.699l-34.22,34.219L169.462,164.443l-9.9,9.9l130.814,130.814L243,352.535l6.699,6.699l-9.191,9.191
				l-37.105-37.105l-1.898,1.898c-0.078-0.08-0.145-0.168-0.224-0.248c-9.372-9.371-24.568-9.371-33.94,0
				c-9.373,9.373-9.373,24.57,0,33.941c0.08,0.08,0.167,0.146,0.248,0.225l-2.369,2.369l98.994,98.994l38.185-38.184l-37.104-37.105
				l9.192-9.191l6.698,6.699l47.376-47.377l131.521,131.521l9.9-9.9L338.46,333.441L372.68,299.223z"/>
		</g>
	</g>
</g>
</svg>
