<?xml version="1.0" encoding="utf-8"?>
<!-- Generator: Adobe Illustrator 16.0.0, SVG Export Plug-In . SVG Version: 6.00 Build 0)  -->
<!DOCTYPE svg PUBLIC "-//W3C//DTD SVG 1.1//EN" "http://www.w3.org/Graphics/SVG/1.1/DTD/svg11.dtd">
<svg version="1.1" xmlns="http://www.w3.org/2000/svg" xmlns:xlink="http://www.w3.org/1999/xlink" x="0px" y="0px" width="634px"
	 height="634px" viewBox="0 0 634 634" enable-background="new 0 0 634 634" xml:space="preserve">
<g id="Layer_1">
</g>
<g id="Layer_2">
</g>
<g id="Layer_3">
	<path fill="#A3E4FF" d="M204,399v1.837c0,2.56,2.348,5.951,5.616,7.54l25.354,12.572c3.268,1.588,9.19,3.051,13.36,3.051h137.544
		c4.17,0,10.272-1.448,13.561-3.022l24.984-12.222c3.289-1.572,5.58-5.033,5.58-7.591V399H204z"/>
	<g>
		<path fill="#A3E4FF" d="M516.954,514h66.927l-17.352-17h-8.518c0.013-1-0.082-1.612-0.31-2.397l-41.319-142.718
			c-0.576-1.988-1.905-3.686-3.7-4.719l-66.103-38.013c-1.234-0.71-2.612-1.066-3.989-1.066c-1.384,0-2.562,0.39-3.802,1.106
			c-0.391,0.227-0.742,0.807-1.075,0.807h-57.886l36.314-27H382v-68.064v-0.003v-2.802c-12.166-33.483-44.252-57.406-81.938-57.406
			c-48.143,0-87.17,39.06-87.17,87.202c0,27.525,12.762,52.073,32.686,68.073h-48.372c-0.336,0-0.69-0.581-1.082-0.808
			c-1.238-0.717-2.504-1.091-3.888-1.091c-1.377,0-2.753,0.346-3.988,1.056l-66.101,38.005c-1.795,1.033-3.12,2.72-3.696,4.709
			L77.137,494.604C76.91,495.389,76.814,496,76.829,497h-9.358l-17.352,17h66.927l-17.352-17h-3.908l100.039-104H317h122.089
			l100.053,104h-4.836L516.954,514z M84.703,496.795l40.151-138.883l64.292,30.304L84.703,496.795z M192,380.717l-61.738-29.1
			L192,316.085V380.717z M259.988,253.049c-11.408,0-20.656-9.248-20.656-20.656c0-11.407,9.248-20.656,20.656-20.656
			s20.656,9.249,20.656,20.656C280.645,243.801,271.396,253.049,259.988,253.049z M443,316.085l61.586,35.522L443,380.635V316.085z
			 M510.001,357.898l40.311,138.896L445.799,388.16L510.001,357.898z"/>
		<polygon fill="#A3E4FF" points="442,172 418.965,172 388,216.802 388,277 442,277 		"/>
	</g>
</g>
</svg>
