<?xml version="1.0" encoding="utf-8"?>
<!-- Generator: Adobe Illustrator 16.0.0, SVG Export Plug-In . SVG Version: 6.00 Build 0)  -->
<!DOCTYPE svg PUBLIC "-//W3C//DTD SVG 1.1//EN" "http://www.w3.org/Graphics/SVG/1.1/DTD/svg11.dtd">
<svg version="1.1" xmlns="http://www.w3.org/2000/svg" xmlns:xlink="http://www.w3.org/1999/xlink" x="0px" y="0px" width="634px"
	 height="634px" viewBox="0 0 634 634" enable-background="new 0 0 634 634" xml:space="preserve">
<g id="Layer_1">
	<rect y="1" width="634" height="634"/>
</g>
<g id="Layer_2">
</g>
<g id="Layer_3">
	<path fill="#A3E4FF" d="M218.383,450.35c20.871-11.893,42.145-25.389,53.209-36.451c15.445-15.445,49.375-49.375,74.582-74.582
		c3.084-2.695,5.801-5.188,8.029-7.416l145.799,198.738c17.65-17.646,20.844-34.361,8.824-70.578l-81.891-201.506
		c35.736-35.736,80.016-80.016,94.795-94.795c17.854-17.854,28.572-41.176,29.41-56.586c0.637-11.752-7.312-17.838-7.312-17.838
		s-6.086-7.949-17.838-7.312c-15.41,0.838-38.732,11.557-56.586,29.41c-14.779,14.779-59.059,59.059-94.795,94.795l-201.492-81.877
		c-36.215-12.018-52.914-8.809-70.561,8.842l198.727,145.789c-2.227,2.229-4.545,5.117-7.436,8.008
		c-25.207,25.207-59.137,59.137-74.582,74.582c-11.062,11.064-24.539,32.359-36.432,53.23
		c-91.539-22.867-91.891-22.502-100.297-14.098l78.52,54.83c-4.766,9.41-7.68,15.512-7.68,15.512l4.369,4.371l4.412,4.41
		c0,0,6.102-2.914,15.512-7.678l54.82,78.506C240.895,542.252,241.248,541.891,218.383,450.35z"/>
</g>
</svg>
