<?xml version="1.0" encoding="utf-8"?>
<!-- Generator: Adobe Illustrator 16.0.0, SVG Export Plug-In . SVG Version: 6.00 Build 0)  -->
<!DOCTYPE svg PUBLIC "-//W3C//DTD SVG 1.1//EN" "http://www.w3.org/Graphics/SVG/1.1/DTD/svg11.dtd">
<svg version="1.1" xmlns="http://www.w3.org/2000/svg" xmlns:xlink="http://www.w3.org/1999/xlink" x="0px" y="0px" width="634px"
	 height="634px" viewBox="0 0 634 634" enable-background="new 0 0 634 634" xml:space="preserve">
<g id="Layer_1">
</g>
<g id="Layer_2">
</g>
<g id="Layer_3">
	<path fill="#464646" d="M204,399v1.901c0,2.56,2.348,5.951,5.616,7.54l25.354,12.54c3.268,1.588,9.19,3.019,13.36,3.019h137.544
		c4.17,0,10.272-1.416,13.561-2.99l24.984-12.205c3.289-1.573,5.58-5.018,5.58-7.575V399H204z"/>
	<g>
		<path fill="#464646" d="M516.954,514h66.927l-17.352-17h-8.518c0.013-0.785-0.082-1.58-0.31-2.365l-41.319-142.701
			c-0.576-1.989-1.905-3.678-3.7-4.711l-66.103-38.009c-1.234-0.71-2.612-1.064-3.989-1.064c-1.384,0-2.562,0.358-3.802,1.075
			c-0.391,0.227-0.742,0.492-1.075,0.775h-57.886l36.314-27H382v-68v-0.003v-2.802c-12.166-33.483-44.252-57.406-81.938-57.406
			c-48.143,0-87.17,39.027-87.17,87.17c0,27.525,12.762,52.065,32.686,68.041h-48.372c-0.336-0.283-0.69-0.549-1.082-0.775
			c-1.238-0.717-2.504-1.075-3.888-1.075c-1.377,0-2.753,0.354-3.988,1.064l-66.101,38.009c-1.795,1.033-3.12,2.722-3.696,4.711
			L77.137,494.635c-0.227,0.785-0.322,1.58-0.308,2.365h-9.358l-17.352,17h66.927l-17.352-17h-3.908l100.039-104H317h122.089
			l100.053,104h-4.836L516.954,514z M84.703,496.859l40.151-138.883l64.292,30.304L84.703,496.859z M192,380.781l-61.738-29.1
			L192,316.149V380.781z M259.988,253.113c-11.408,0-20.656-9.248-20.656-20.656c0-11.407,9.248-20.656,20.656-20.656
			s20.656,9.249,20.656,20.656C280.645,243.865,271.396,253.113,259.988,253.113z M443,316.149l61.586,35.522L443,380.699V316.149z
			 M510.001,357.963l40.311,138.896L445.799,388.225L510.001,357.963z"/>
		<polygon fill="#464646" points="442,172 418.965,172 388,216.866 388,277 442,277 		"/>
	</g>
</g>
</svg>
