<?xml version="1.0" encoding="utf-8"?>
<!-- Generator: Adobe Illustrator 16.0.0, SVG Export Plug-In . SVG Version: 6.00 Build 0)  -->
<!DOCTYPE svg PUBLIC "-//W3C//DTD SVG 1.1//EN" "http://www.w3.org/Graphics/SVG/1.1/DTD/svg11.dtd">
<svg version="1.1" xmlns="http://www.w3.org/2000/svg" xmlns:xlink="http://www.w3.org/1999/xlink" x="0px" y="0px" width="199px"
	 height="95px" viewBox="0 0 199 95" enable-background="new 0 0 199 95" xml:space="preserve">
<g id="Layer_1">
</g>
<g id="Layer_2">
	<rect fill="#26A4DA" width="199" height="95"/>
</g>
<g id="Layer_3">
	<path fill="#FFFFFF" d="M135.882,13.625c-5.209-4.505-13.084-3.935-17.588,1.274c-1.315,1.521-2.186,3.274-2.646,5.101H83.352
		c-1.152-4.544-4.819-8.248-9.729-9.19c-6.763-1.297-13.297,3.135-14.593,9.897c-1.298,6.764,3.134,13.297,9.896,14.595
		c2.007,0.385,3.989,0.255,5.824-0.28l16.126,27.93c-3.404,3.269-4.805,8.33-3.156,13.08c2.259,6.507,9.364,9.949,15.868,7.69
		c6.507-2.259,9.949-9.362,7.689-15.868c-0.669-1.93-1.772-3.581-3.153-4.903l16.126-27.931c4.532,1.313,9.616-0.004,12.906-3.808
		C141.662,26.004,141.091,18.129,135.882,13.625z M83.374,26h32.246c0.539,2.224,1.694,4.312,3.443,6.003l-16.141,27.958
		c-2.173-0.622-4.53-0.653-6.84,0.008L79.94,32.009C81.585,30.42,82.8,28.365,83.374,26z"/>
</g>
</svg>
