<?xml version="1.0" encoding="utf-8"?>
<!-- Generator: Adobe Illustrator 16.0.0, SVG Export Plug-In . SVG Version: 6.00 Build 0)  -->
<!DOCTYPE svg PUBLIC "-//W3C//DTD SVG 1.1//EN" "http://www.w3.org/Graphics/SVG/1.1/DTD/svg11.dtd">
<svg version="1.1" xmlns="http://www.w3.org/2000/svg" xmlns:xlink="http://www.w3.org/1999/xlink" x="0px" y="0px" width="199px"
	 height="95px" viewBox="0 0 199 95" enable-background="new 0 0 199 95" xml:space="preserve">
<g id="Layer_1">
</g>
<g id="Layer_2">
	<rect fill="#464646" width="199" height="95"/>
</g>
<g id="Layer_3">
	<path d="M99.5,7.419c-22.299,0-40.375,18.076-40.375,40.375S77.201,88.169,99.5,88.169s40.375-18.076,40.375-40.375
		S121.799,7.419,99.5,7.419z M75.792,26.377l4-5.377h-3.167l3.167-5.375l8.833-5.313l8-1.312h7l2.75,1.957L99.5,11.771l5.458,1.323
		l4,5.994L99.5,18.586l-7.707,1.998l-4.001,3.167l8-2.667l7.166-0.334l3.417,3.253l-11.042,4.291l-6.687,4.645l-2.845,1.989
		l1.829-7.506l-5.337,0.332l-7.667,3.685L75.792,26.377z M113,82.731l-8.438,1.511L91.094,85.33l-10.9-7.372l-7.368-8.687
		l-3.412-2.01L63,61.752v-6.333l6.729,6.5l-2.053-6.5l-2.858-2.397L67.458,48H62v-4.581l2.229-9.167l7.281-8l-1.526,4l0.403,3.167
		l-2.298,4.333l4.685-3l-1.158,5.834l1.005,4.833l6.668,5.167l0.668,5.205l3.335-7.372l-3.834-4.667l11.5,6.167l2.167,9.333
		l-10.667-1.5l-2,6.834l2.5,7.333l1.667-4l6.333,1.5l3.167-7l5.375,1.167l4.354,10l9.146,6.5V82.731z M122.958,61.586l-1.5,2.666
		l-2.333-3.833l1.166-3.5l-1.166-5.333c0,0,3.666,4.244,3.833,4.205S122.958,61.586,122.958,61.586z M135.125,61.419l-0.833-5.628
		l-3.562-5.207L127,61.419v-10l-3.104-6.667l-1.145,3.042l-3.767-5.208l-8.93-1.959L101.125,33h7.5l3.167,0.959l-3.667-4.187
		l4.5,0.656l7.667-2.507l-1.167-2.668l-3.5-5.669l-5.5-6.5l7.167,1.333l8.271,6.666L128,23.251v6.168l5.396,4.998l3.948,8.5
		c0,0,0.309,7.001,0.141,7.834C137.318,51.584,135.125,61.419,135.125,61.419z"/>
</g>
</svg>
