<?xml version="1.0" encoding="utf-8"?>
<!-- Generator: Adobe Illustrator 16.0.0, SVG Export Plug-In . SVG Version: 6.00 Build 0)  -->
<!DOCTYPE svg PUBLIC "-//W3C//DTD SVG 1.1//EN" "http://www.w3.org/Graphics/SVG/1.1/DTD/svg11.dtd">
<svg version="1.1" xmlns="http://www.w3.org/2000/svg" xmlns:xlink="http://www.w3.org/1999/xlink" x="0px" y="0px" width="199px"
	 height="95px" viewBox="0 0 199 95" enable-background="new 0 0 199 95" xml:space="preserve">
<g id="Layer_1">
</g>
<g id="Layer_2">
</g>
<g id="Layer_3">
	<path d="M128.135,47.335c0-4.356-0.963-8.485-2.676-12.196l12.639-7.3l-2.101-3.637l-12.749,7.26
		C118.453,24.101,111,19.044,101,18.302V4h-4v14.262c-10,0.571-17.096,5.374-22.028,12.479l-12.335-7.144l-2.08,3.638l12.344,7.12
		c-1.948,3.909-3.046,8.315-3.046,12.979c0,4.349,0.962,8.472,2.671,12.178l-12.623,7.291l2.1,3.638l12.554-7.249
		c4.737,7.286,12.64,12.365,21.763,13.197L96.321,91h4.2l-0.004-14.522c9.199-0.473,17.264-5.239,22.268-12.304l12.63,7.277
		l2.1-3.644L124.96,60.56C126.985,56.591,128.135,52.098,128.135,47.335z M98.997,65.63c-10.085,0-18.288-8.203-18.288-18.288
		s8.203-18.288,18.288-18.288s18.288,8.203,18.288,18.288S109.082,65.63,98.997,65.63z"/>
</g>
</svg>
