<?xml version="1.0" encoding="utf-8"?>
<!-- Generator: Adobe Illustrator 16.0.0, SVG Export Plug-In . SVG Version: 6.00 Build 0)  -->
<!DOCTYPE svg PUBLIC "-//W3C//DTD SVG 1.1//EN" "http://www.w3.org/Graphics/SVG/1.1/DTD/svg11.dtd">
<svg version="1.1" xmlns="http://www.w3.org/2000/svg" xmlns:xlink="http://www.w3.org/1999/xlink" x="0px" y="0px" width="199px"
	 height="95px" viewBox="0 0 199 95" enable-background="new 0 0 199 95" xml:space="preserve">
<g id="Layer_1">
</g>
<g id="Layer_2">
	<rect fill="#464646" width="199" height="95"/>
</g>
<g id="Layer_3">
	<path d="M135.882,13.176c-5.209-4.505-13.084-3.71-17.588,1.499c-1.315,1.521-2.186,3.325-2.646,5.325H83.352
		c-1.152-5-4.819-8.473-9.729-9.415C66.86,9.288,60.326,13.607,59.03,20.37c-1.298,6.764,3.134,13.241,9.896,14.538
		c2.007,0.385,3.989,0.228,5.824-0.308l16.126,27.915c-3.404,3.269-4.805,8.323-3.156,13.073c2.259,6.507,9.364,9.946,15.868,7.688
		c6.507-2.259,9.949-9.364,7.689-15.87c-0.669-1.93-1.772-3.582-3.153-4.904l16.126-27.932c4.532,1.313,9.616-0.004,12.906-3.808
		C141.662,25.555,141.091,17.68,135.882,13.176z M83.374,26h32.246c0.539,2,1.694,4.087,3.443,5.778l-16.141,27.846
		c-2.173-0.622-4.53-0.71-6.84-0.048L79.94,31.812C81.585,30.224,82.8,28,83.374,26z"/>
</g>
</svg>
