<?xml version="1.0" encoding="utf-8"?>
<!-- Generator: Adobe Illustrator 16.0.0, SVG Export Plug-In . SVG Version: 6.00 Build 0)  -->
<!DOCTYPE svg PUBLIC "-//W3C//DTD SVG 1.1//EN" "http://www.w3.org/Graphics/SVG/1.1/DTD/svg11.dtd">
<svg version="1.1" xmlns="http://www.w3.org/2000/svg" xmlns:xlink="http://www.w3.org/1999/xlink" x="0px" y="0px" width="199px"
	 height="95px" viewBox="0 0 199 95" enable-background="new 0 0 199 95" xml:space="preserve">
<g id="Layer_1">
</g>
<g id="Layer_2">
</g>
<g id="Layer_3">
	<path fill="#FFFFFF" d="M128.135,47.582c0-4.355-0.963-8.484-2.676-12.195l12.639-7.301l-2.101-3.637l-12.749,7.26
		C118.453,24.348,111,19.291,101,18.549V4h-4v14.51c-10,0.57-17.096,5.373-22.028,12.479l-12.335-7.143l-2.08,3.637L72.9,34.604
		c-1.948,3.908-3.046,8.314-3.046,12.979c0,4.35,0.962,8.473,2.671,12.178l-12.623,7.291l2.1,3.639l12.554-7.25
		c4.737,7.287,12.64,12.241,21.763,13.073L96.321,91h4.2l-0.004-14.399c9.199-0.473,17.264-5.177,22.268-12.241l12.63,7.309
		l2.1-3.629l-12.555-7.24C126.985,56.83,128.135,52.346,128.135,47.582z M98.997,65.877c-10.085,0-18.288-8.203-18.288-18.287
		c0-10.086,8.203-18.289,18.288-18.289s18.288,8.203,18.288,18.289C117.285,57.674,109.082,65.877,98.997,65.877z"/>
</g>
</svg>
