<?xml version="1.0" encoding="utf-8"?>
<!-- Generator: Adobe Illustrator 16.0.0, SVG Export Plug-In . SVG Version: 6.00 Build 0)  -->
<!DOCTYPE svg PUBLIC "-//W3C//DTD SVG 1.1//EN" "http://www.w3.org/Graphics/SVG/1.1/DTD/svg11.dtd">
<svg version="1.1" xmlns="http://www.w3.org/2000/svg" xmlns:xlink="http://www.w3.org/1999/xlink" x="0px" y="0px" width="199px"
	 height="95px" viewBox="0 0 199 95" enable-background="new 0 0 199 95" xml:space="preserve">
<g id="Layer_1">
</g>
<g id="Layer_2">
</g>
<g id="Layer_3">
	<path d="M99.5,7.539c-22.299,0-40.375,18.076-40.375,40.375S77.201,88.289,99.5,88.289s40.375-18.076,40.375-40.375
		S121.799,7.539,99.5,7.539z M75.792,26.438l4-5.438h-3.167l3.167-5.314l8.833-5.344l8-1.342h7l2.75,2.018L99.5,11.86l5.458,1.339
		l4,6.001L99.5,18.702l-7.707,2l-4.001,3.168l8-2.667l7.166-0.333l3.417,3.253l-11.042,4.291l-6.687,4.645l-2.845,1.989l1.829-7.506
		l-5.337,0.332l-7.667,3.654L75.792,26.438z M113,82.852l-8.438,1.511L91.094,85.45l-10.9-7.372l-7.368-8.687l-3.412-2.01L63,61.872
		v-6.333l6.729,6.5l-2.053-6.5l-2.858-2.457L67.458,48H62v-4.461l2.229-9.167l7.281-8l-1.526,4l0.403,3.167l-2.298,4.333l4.685-3
		l-1.158,5.834l1.005,4.833l6.668,5.167l0.668,5.205l3.335-7.372l-3.834-4.667l11.5,6.167l2.167,9.333l-10.667-1.5l-2,6.834
		l2.5,7.333l1.667-4l6.333,1.5l3.167-7l5.375,1.167l4.354,10l9.146,6.5V82.852z M122.958,61.706l-1.5,2.666l-2.333-3.833l1.166-3.5
		l-1.166-5.333c0,0,3.666,4.244,3.833,4.205S122.958,61.706,122.958,61.706z M135.125,61.539l-0.833-5.628l-3.562-5.207L127,61.539
		v-10l-3.104-6.667l-1.145,3.042l-3.767-5.208l-8.93-2.019L101.125,33h7.5l3.167,1.02l-3.667-4.157l4.5,0.672l7.667-2.5
		l-1.167-2.664l-3.5-5.667l-5.5-6.499l7.167,1.333l8.271,6.667L128,23.371v6.168l5.396,4.998l3.948,8.5c0,0,0.309,7.001,0.141,7.834
		C137.318,51.704,135.125,61.539,135.125,61.539z"/>
</g>
</svg>
