<?xml version="1.0" encoding="utf-8"?>
<!-- Generator: Adobe Illustrator 16.0.0, SVG Export Plug-In . SVG Version: 6.00 Build 0)  -->
<!DOCTYPE svg PUBLIC "-//W3C//DTD SVG 1.1//EN" "http://www.w3.org/Graphics/SVG/1.1/DTD/svg11.dtd">
<svg version="1.1" xmlns="http://www.w3.org/2000/svg" xmlns:xlink="http://www.w3.org/1999/xlink" x="0px" y="0px" width="199px"
	 height="95px" viewBox="0 0 199 95" enable-background="new 0 0 199 95" xml:space="preserve">
<g id="Layer_1">
</g>
<g id="Layer_2">
	<rect fill="#464646" width="199" height="95"/>
</g>
<g id="Layer_3">
	<g>
		<path d="M99.444,62.5c-11.107-0.463-21.04-1.177-31.646-2.326c6.377,16.551,23.947,26.568,41.903,22.894
			c11.836-2.421,21.181-10.248,25.997-20.378C124.209,63.105,112.652,63.052,99.444,62.5z"/>
		<path d="M45.292,53.189c-20.683-3.938-21.597-7.444-21.6-7.472c0.346-1.863,11.229-5.966,42.508-6.949l0,0
			c-1.109,4.945-1.225,10.196-0.143,15.483c0.143,0.698,0.31,1.385,0.489,2.064c10.197,1.151,21.428,2.003,33.052,2.49
			c13.351,0.558,26.218,0.59,37.637,0.121c2.105-6.064,2.662-12.757,1.282-19.504c-4.095-20.009-23.633-32.91-43.643-28.815
			c-13.369,2.735-23.556,12.369-27.63,24.428c-21.453,0.611-46.931,2.934-47.247,10.522c-0.116,2.772,2.249,6.944,24.044,11.157
			c6.95,1.343,15.003,2.507,23.757,3.458c-0.481-1.252-0.903-2.536-1.252-3.857C58.762,55.438,51.579,54.386,45.292,53.189z"/>
		<path d="M163.575,42.751c-0.011-0.293-0.04-0.588-0.101-0.884c-0.597-2.918-3.446-4.8-6.364-4.202
			c-2.92,0.598-4.799,3.446-4.203,6.364c0.598,2.919,3.446,4.8,6.365,4.203c1.301-0.267,2.394-0.982,3.155-1.95
			c13.271,3.235,13.905,5.8,13.908,5.817c-0.008,0.034-1.213,3.451-22.151,5.648c-5.127,0.536-10.834,0.93-16.949,1.18
			c-0.445,1.283-0.957,2.541-1.536,3.762c7.065-0.257,13.622-0.698,19.438-1.324c4.855-0.523,8.772-1.122,11.933-1.769
			c11.2-2.294,12.87-5.177,12.96-7.339C180.224,47.602,171.733,44.737,163.575,42.751z"/>
	</g>
</g>
</svg>
